# xmcd
#
# Track frame offsets:
#	180
#	13484
#	24527
#	36501
#	50583
#	63764
#	75769
#	87326
#	99092
#	110559
#	124435
#	140649
#	152071
#	159024
#	178882
#	192860
#	208555
#	220860
#
# Disc length: 3102 seconds
#
# Revision: 1
# Processed by: cddbd v1.5.2PL0 Copyright (c) Steve Scherf et al.
# Submitted via: audiograbber 1.83.01
#
DISCID=f30c1c12
DTITLE=Various Artist - Great Voices Of Entertainment -CD 10
DYEAR=1900
DGENRE=Swing
TTITLE0=Bing Crosby - My Melancholy Baby
TTITLE1=Fred Astaire - I'd Rather Lead A Band
TTITLE2=Fred Astaire - White Heat/Dancing In The Dark
TTITLE3=Bing Crosby - Pennies From Heaven
TTITLE4=Judy Garland - Zing! Wend The Strings Of My Heart
TTITLE5=Dorothy Carless - You Must Have Been A Beautiful Baby
TTITLE6=Judy Garland - On The Sunny Side Of The Street
TTITLE7=Frank Sinatra - The Way You Look Tonight
TTITLE8=Frank Sinatra - Swinging On A Star
TTITLE9=Mel Tormé - Guilty
TTITLE10=Four Knights - Jezebel
TTITLE11=Doris Day - I Got The Sun In The Morning
TTITLE12=Four Knights - Don't You Want To Join That Number?
TTITLE13=Mel Tormé - I Cover The Waterfront
TTITLE14=Dean Martin - The Money Song
TTITLE15=Perry Como - Blue Room
TTITLE16=Dean Martin - We Never Talk Much
TTITLE17=Perry Como - To Know You (Is To Love You)
EXTD=CD 10 von 10
EXTT0=
EXTT1=
EXTT2=
EXTT3=
EXTT4=
EXTT5=
EXTT6=
EXTT7=
EXTT8=
EXTT9=
EXTT10=
EXTT11=
EXTT12=
EXTT13=
EXTT14=
EXTT15=
EXTT16=
EXTT17=
PLAYORDER=
